<svg width="37" height="37" viewBox="0 0 37 37" fill="none" xmlns="http://www.w3.org/2000/svg">
<path fill-rule="evenodd" clip-rule="evenodd" d="M18.5 37C28.7173 37 37 28.7173 37 18.5C37 8.28273 28.7173 0 18.5 0C8.28273 0 0 8.28273 0 18.5C0 28.7173 8.28273 37 18.5 37Z" fill="black"/>
<path fill-rule="evenodd" clip-rule="evenodd" d="M21.0649 11.248C21.0409 11.272 20.9929 11.296 20.9689 11.296C20.8969 11.296 20.8729 11.272 20.8729 11.2C20.8729 11.176 20.8969 11.128 20.9449 11.08C21.8897 10.1849 22.8918 8.79754 23.5241 7.92207L23.5242 7.92204C23.8074 7.52993 24.0164 7.24051 24.1129 7.144C24.2329 7.024 24.4729 7 24.7369 7C24.9529 7 25.1449 7 25.2169 7.072C25.2889 7.144 25.2889 7.312 25.2889 7.576C25.2889 7.72485 25.1759 7.83602 25.0333 7.97627C25.0149 7.99432 24.9961 8.01285 24.9769 8.032C24.8713 8.13758 24.5762 8.35692 24.18 8.65128C23.3155 9.29368 21.9701 10.2934 21.0649 11.248ZM12.3769 24.136C13.5529 23.8 18.0169 19.36 20.7049 16.144C19.1929 14.176 18.2809 13.696 17.3449 13.696C15.6649 13.696 13.4569 16.072 12.4969 19C11.7289 21.376 11.7289 23.392 12.3769 24.136ZM18.2391 19.5476C17.4101 20.7613 16.4108 22.2244 16.5049 23.392C16.5289 23.872 16.7689 24.736 17.2729 25.312C17.3449 25.456 18.4009 25.456 18.6169 25.336C20.1529 24.4 21.5209 23.104 22.4089 22.24L22.2649 22.072C21.3289 23.08 19.9849 23.92 19.3849 24.184C18.9049 24.016 18.5449 23.584 18.5209 23.176C18.4249 21.16 22.3369 15.256 23.8969 13.288C23.8969 13.24 23.8969 13.192 23.8729 13.168C23.8489 13.12 23.7769 13.144 23.6809 13.24C23.1289 13.816 22.3609 14.584 22.0009 14.872C20.5849 13.336 19.9129 13.12 18.7369 13.12C16.6489 13.12 12.2569 15.496 10.7209 19.312C9.73692 21.64 9.73692 24.448 10.8649 25.336C10.9849 25.432 11.6089 25.504 11.8249 25.336C13.8169 23.608 16.7449 20.848 18.8569 18.616C18.6812 18.9002 18.4665 19.2145 18.2391 19.5476Z" fill="white"/>
</svg>
